<svg width="42" height="42" viewBox="0 0 42 42" fill="none" xmlns="http://www.w3.org/2000/svg">
<path opacity="0.5" d="M18.1986 0H14.0319C13.4794 0 12.9495 0.219493 12.5588 0.610194C12.1681 1.00089 11.9486 1.5308 11.9486 2.08333C11.9486 2.63587 12.1681 3.16577 12.5588 3.55647C12.9495 3.94717 13.4794 4.16667 14.0319 4.16667V8.33333H11.5652C11.812 7.66614 11.9417 6.96134 11.9486 6.25C11.9485 4.87421 11.4945 3.53688 10.657 2.44542C9.81941 1.35395 8.64512 0.569329 7.31622 0.213244C5.98731 -0.142841 4.57804 -0.0504939 3.30696 0.475963C2.03588 1.00242 0.974031 1.93357 0.286077 3.125C0.147123 3.36202 0.0564255 3.62419 0.0192052 3.89641C-0.0180151 4.16862 -0.00102253 4.44551 0.0692041 4.71114C0.139431 4.97676 0.261504 5.22587 0.428397 5.44412C0.59529 5.66238 0.803705 5.84546 1.04164 5.98284C1.27958 6.12022 1.54234 6.20918 1.8148 6.24459C2.08726 6.28 2.36403 6.26117 2.62919 6.18919C2.89434 6.1172 3.14263 5.99348 3.35977 5.82514C3.57691 5.6568 3.75861 5.44718 3.89441 5.20833C4.07758 4.89192 4.34064 4.62916 4.65726 4.44635C4.97388 4.26354 5.33297 4.1671 5.69858 4.16667C6.25111 4.16667 6.78101 4.38616 7.17172 4.77686C7.56242 5.16756 7.78191 5.69747 7.78191 6.25C7.78191 6.80253 7.56242 7.33244 7.17172 7.72314C6.78101 8.11384 6.25111 8.33333 5.69858 8.33333C5.14604 8.33333 4.61614 8.55283 4.22544 8.94353C3.83474 9.33423 3.61524 9.86413 3.61524 10.4167C3.61524 10.9692 3.83474 11.4991 4.22544 11.8898C4.61614 12.2805 5.14604 12.5 5.69858 12.5C6.25111 12.5 6.78101 12.7195 7.17172 13.1102C7.56242 13.5009 7.78191 14.0308 7.78191 14.5833C7.78191 15.1359 7.56242 15.6658 7.17172 16.0565C6.78101 16.4472 6.25111 16.6667 5.69858 16.6667C5.33297 16.6662 4.97388 16.5698 4.65726 16.387C4.34064 16.2042 4.07758 15.9414 3.89441 15.625C3.75861 15.3862 3.57691 15.1765 3.35977 15.0082C3.14263 14.8399 2.89434 14.7161 2.62919 14.6441C2.36403 14.5722 2.08726 14.5533 1.8148 14.5887C1.54234 14.6242 1.27958 14.7131 1.04164 14.8505C0.803705 14.9879 0.59529 15.171 0.428397 15.3892C0.261504 15.6075 0.139431 15.8566 0.0692041 16.1222C-0.00102253 16.3878 -0.0180151 16.6647 0.0192052 16.9369C0.0564255 17.2091 0.147123 17.4713 0.286077 17.7083C0.974031 18.8998 2.03588 19.8309 3.30696 20.3574C4.57804 20.8838 5.98731 20.9762 7.31622 20.6201C8.64512 20.264 9.81941 19.4794 10.657 18.3879C11.4945 17.2964 11.9485 15.9591 11.9486 14.5833C11.9417 13.872 11.812 13.1672 11.5652 12.5H14.0319V18.75C14.0319 19.3025 14.2514 19.8324 14.6421 20.2231C15.0328 20.6138 15.5627 20.8333 16.1152 20.8333C16.6678 20.8333 17.1977 20.6138 17.5884 20.2231C17.9791 19.8324 18.1986 19.3025 18.1986 18.75V4.16667C18.7511 4.16667 19.281 3.94717 19.6717 3.55647C20.0624 3.16577 20.2819 2.63587 20.2819 2.08333C20.2819 1.5308 20.0624 1.00089 19.6717 0.610194C19.281 0.219493 18.7511 0 18.1986 0ZM24.4486 10.4167H26.5319C27.0843 10.4172 27.6139 10.6369 28.0044 11.0275C28.395 11.4181 28.6147 11.9476 28.6152 12.5V14.5833C28.6152 15.1359 28.8347 15.6658 29.2254 16.0565C29.6161 16.4472 30.146 16.6667 30.6986 16.6667C31.2511 16.6667 31.781 16.4472 32.1717 16.0565C32.5624 15.6658 32.7819 15.1359 32.7819 14.5833V12.5C32.7803 10.8429 32.1212 9.25415 30.9495 8.08241C29.7778 6.91067 28.189 6.25165 26.5319 6.25H24.4486C23.896 6.25 23.3661 6.46949 22.9754 6.86019C22.5847 7.2509 22.3652 7.7808 22.3652 8.33333C22.3652 8.88587 22.5847 9.41577 22.9754 9.80647C23.3661 10.1972 23.896 10.4167 24.4486 10.4167ZM16.1152 29.1667H14.0319C13.4795 29.1661 12.95 28.9464 12.5594 28.5559C12.1688 28.1653 11.9491 27.6357 11.9486 27.0833V25C11.9486 24.4475 11.7291 23.9176 11.3384 23.5269C10.9477 23.1362 10.4178 22.9167 9.86524 22.9167C9.31271 22.9167 8.7828 23.1362 8.3921 23.5269C8.0014 23.9176 7.78191 24.4475 7.78191 25V27.0833C7.78356 28.7404 8.44258 30.3292 9.61432 31.5009C10.7861 32.6727 12.3748 33.3317 14.0319 33.3333H16.1152C16.6678 33.3333 17.1977 33.1138 17.5884 32.7231C17.9791 32.3324 18.1986 31.8025 18.1986 31.25C18.1986 30.6975 17.9791 30.1676 17.5884 29.7769C17.1977 29.3862 16.6678 29.1667 16.1152 29.1667ZM39.0319 27.0833C39.5844 27.0833 40.1143 26.8638 40.505 26.4731C40.8957 26.0824 41.1152 25.5525 41.1152 25C41.1152 24.4475 40.8957 23.9176 40.505 23.5269C40.1143 23.1362 39.5844 22.9167 39.0319 22.9167H32.7819V21.875C32.7819 21.3225 32.5624 20.7926 32.1717 20.4019C31.781 20.0112 31.2511 19.7917 30.6986 19.7917C30.146 19.7917 29.6161 20.0112 29.2254 20.4019C28.8347 20.7926 28.6152 21.3225 28.6152 21.875V22.9167H22.3652C21.8127 22.9167 21.2828 23.1362 20.8921 23.5269C20.5014 23.9176 20.2819 24.4475 20.2819 25C20.2819 25.5525 20.5014 26.0824 20.8921 26.4731C21.2828 26.8638 21.8127 27.0833 22.3652 27.0833H33.1652C32.6943 28.9982 31.8247 30.7921 30.6132 32.3479C30.1166 31.705 29.6774 31.0197 29.3007 30.3C29.1808 30.0484 29.0117 29.8233 28.8033 29.6383C28.5949 29.4532 28.3516 29.3118 28.0875 29.2224C27.8235 29.1331 27.5443 29.0976 27.2663 29.1182C26.9884 29.1387 26.7174 29.2148 26.4694 29.3419C26.2213 29.4691 26.0014 29.6447 25.8224 29.8584C25.6435 30.0721 25.5093 30.3195 25.4277 30.586C25.3461 30.8525 25.3188 31.1327 25.3475 31.4099C25.3761 31.6871 25.4601 31.9558 25.5944 32.2C26.1561 33.2844 26.8262 34.3091 27.5944 35.2583C26.0822 36.3561 24.3627 37.1351 22.5402 37.5479C22.0004 37.6659 21.5296 37.9935 21.2313 38.4586C20.933 38.9237 20.8317 39.4883 20.9496 40.0281C21.0676 40.5679 21.3952 41.0388 21.8603 41.3371C22.3254 41.6354 22.89 41.7367 23.4298 41.6187C26.0438 41.0404 28.4958 39.886 30.6069 38.2396C32.7359 39.8873 35.2044 41.0415 37.834 41.6187C38.3738 41.7375 38.9387 41.637 39.4044 41.3393C39.8702 41.0416 40.1985 40.5711 40.3173 40.0312C40.4361 39.4914 40.3356 38.9265 40.0379 38.4608C39.7402 37.9951 39.2696 37.6667 38.7298 37.5479C36.8962 37.1402 35.1632 36.368 33.634 35.2771C35.5608 32.9061 36.8597 30.0883 37.4111 27.0833H39.0319Z" fill="white"/>
</svg>
