<svg width="46" height="38" viewBox="0 0 46 38" fill="none" xmlns="http://www.w3.org/2000/svg">
<path opacity="0.5" d="M30.3416 29.2308L35.6531 38H32.1141L26.8027 29.2308H19.2157L13.9043 38H10.3653L15.6768 29.2308H6.13333C5.72667 29.2308 5.33666 29.0768 5.0491 28.8027C4.76155 28.5286 4.6 28.1569 4.6 27.7692V2.92308H1.53333C1.12667 2.92308 0.736659 2.76909 0.449103 2.495C0.161547 2.22091 0 1.84916 0 1.46154C0 1.07391 0.161547 0.702167 0.449103 0.428075C0.736659 0.153983 1.12667 0 1.53333 0H44.4667C44.8733 0 45.2633 0.153983 45.5509 0.428075C45.8385 0.702167 46 1.07391 46 1.46154C46 1.84916 45.8385 2.22091 45.5509 2.495C45.2633 2.76909 44.8733 2.92308 44.4667 2.92308H41.4V27.7692C41.4 28.1569 41.2385 28.5286 40.9509 28.8027C40.6633 29.0768 40.2733 29.2308 39.8667 29.2308H30.3416ZM38.3333 2.92308H7.66667V26.3077H38.3333V2.92308ZM15.3333 14.6154C15.74 14.6154 16.13 14.7694 16.4176 15.0435C16.7051 15.3176 16.8667 15.6893 16.8667 16.0769V19C16.8667 19.3876 16.7051 19.7594 16.4176 20.0335C16.13 20.3076 15.74 20.4615 15.3333 20.4615C14.9267 20.4615 14.5367 20.3076 14.2491 20.0335C13.9615 19.7594 13.8 19.3876 13.8 19V16.0769C13.8 15.6893 13.9615 15.3176 14.2491 15.0435C14.5367 14.7694 14.9267 14.6154 15.3333 14.6154ZM23 11.6923C23.4067 11.6923 23.7967 11.8463 24.0842 12.1204C24.3718 12.3945 24.5333 12.7662 24.5333 13.1538V19C24.5333 19.3876 24.3718 19.7594 24.0842 20.0335C23.7967 20.3076 23.4067 20.4615 23 20.4615C22.5933 20.4615 22.2033 20.3076 21.9158 20.0335C21.6282 19.7594 21.4667 19.3876 21.4667 19V13.1538C21.4667 12.7662 21.6282 12.3945 21.9158 12.1204C22.2033 11.8463 22.5933 11.6923 23 11.6923ZM30.6667 8.76923C31.0733 8.76923 31.4633 8.92321 31.7509 9.19731C32.0385 9.4714 32.2 9.84315 32.2 10.2308V19C32.2 19.3876 32.0385 19.7594 31.7509 20.0335C31.4633 20.3076 31.0733 20.4615 30.6667 20.4615C30.26 20.4615 29.87 20.3076 29.5824 20.0335C29.2949 19.7594 29.1333 19.3876 29.1333 19V10.2308C29.1333 9.84315 29.2949 9.4714 29.5824 9.19731C29.87 8.92321 30.26 8.76923 30.6667 8.76923Z" fill="white"/>
</svg>
