<svg width="31" height="31" viewBox="0 0 31 31" fill="none" xmlns="http://www.w3.org/2000/svg">
<path opacity="0.45" d="M19.6333 29.9667H18.6C18.6 30.1586 18.6534 30.3467 18.7543 30.5099C18.8552 30.6732 18.9996 30.8051 19.1712 30.8909C19.3429 30.9767 19.535 31.0131 19.7261 30.9958C19.9173 30.9786 20.0998 30.9085 20.2533 30.7933L19.6333 29.9667ZM23.7667 26.8667L24.3867 26.04C24.2078 25.9059 23.9902 25.8333 23.7667 25.8333C23.5431 25.8333 23.3255 25.9059 23.1467 26.04L23.7667 26.8667ZM27.9 29.9667L27.28 30.7933C27.4335 30.9085 27.6161 30.9786 27.8072 30.9958C27.9983 31.0131 28.1905 30.9767 28.3621 30.8909C28.5338 30.8051 28.6781 30.6732 28.779 30.5099C28.8799 30.3467 28.9333 30.1586 28.9333 29.9667H27.9ZM23.7667 22.7333C22.3964 22.7333 21.0822 22.189 20.1133 21.2201C19.1443 20.2511 18.6 18.937 18.6 17.5667H16.5333C16.5333 19.4851 17.2954 21.3249 18.6519 22.6814C20.0084 24.0379 21.8483 24.8 23.7667 24.8V22.7333ZM28.9333 17.5667C28.9333 18.937 28.389 20.2511 27.4201 21.2201C26.4511 22.189 25.137 22.7333 23.7667 22.7333V24.8C25.6851 24.8 27.5249 24.0379 28.8814 22.6814C30.2379 21.3249 31 19.4851 31 17.5667H28.9333ZM23.7667 12.4C25.137 12.4 26.4511 12.9443 27.4201 13.9133C28.389 14.8822 28.9333 16.1964 28.9333 17.5667H31C31 15.6483 30.2379 13.8084 28.8814 12.4519C27.5249 11.0954 25.6851 10.3333 23.7667 10.3333V12.4ZM23.7667 10.3333C21.8483 10.3333 20.0084 11.0954 18.6519 12.4519C17.2954 13.8084 16.5333 15.6483 16.5333 17.5667H18.6C18.6 16.1964 19.1443 14.8822 20.1133 13.9133C21.0822 12.9443 22.3964 12.4 23.7667 12.4V10.3333ZM18.6 21.7V29.9667H20.6667V21.7H18.6ZM20.2533 30.7933L24.3867 27.6933L23.1467 26.04L19.0133 29.14L20.2533 30.7933ZM23.1467 27.6933L27.28 30.7933L28.52 29.14L24.3867 26.04L23.1467 27.6933ZM28.9333 29.9667V21.7H26.8667V29.9667H28.9333ZM31 10.3333V3.1H28.9333V10.3333H31ZM27.9 0H3.1V2.06667H27.9V0ZM0 3.1V27.9H2.06667V3.1H0ZM3.1 31H16.5333V28.9333H3.1V31ZM0 27.9C0 28.7222 0.326606 29.5107 0.907969 30.092C1.48933 30.6734 2.27783 31 3.1 31V28.9333C2.82594 28.9333 2.56311 28.8245 2.36932 28.6307C2.17554 28.4369 2.06667 28.1741 2.06667 27.9H0ZM3.1 0C2.27783 0 1.48933 0.326606 0.907969 0.907969C0.326606 1.48933 0 2.27783 0 3.1H2.06667C2.06667 2.82594 2.17554 2.56311 2.36932 2.36932C2.56311 2.17554 2.82594 2.06667 3.1 2.06667V0ZM31 3.1C31 2.27783 30.6734 1.48933 30.092 0.907969C29.5107 0.326606 28.7222 0 27.9 0V2.06667C28.1741 2.06667 28.4369 2.17554 28.6307 2.36932C28.8245 2.56311 28.9333 2.82594 28.9333 3.1H31ZM6.2 10.3333H16.5333V8.26667H6.2V10.3333ZM6.2 16.5333H12.4V14.4667H6.2V16.5333Z" fill="white"/>
</svg>
