<svg width="47" height="47" viewBox="0 0 47 47" fill="none" xmlns="http://www.w3.org/2000/svg">
<path d="M36.4434 13.2996C34.2219 9.49922 31.1926 7.40625 27.9062 7.40625H19.0938C15.8074 7.40625 12.7781 9.49922 10.5566 13.2996C8.33516 17.1 7.34375 21.543 7.34375 26.5C7.34375 31.457 8.48203 36.157 10.5566 39.7004C12.6312 43.2437 15.8074 45.5938 19.0938 45.5938H27.9062C31.1926 45.5938 34.2219 43.5008 36.4434 39.7004C38.6648 35.9 39.6562 31.457 39.6562 26.5C39.6562 21.543 38.518 16.843 36.4434 13.2996ZM36.682 25.0312H30.807C30.6602 21.8734 30.0543 18.8441 29.0262 16.2188H34.6441C35.7641 18.6789 36.5168 21.7266 36.682 25.0312ZM32.9 13.2812H27.6309C27.0092 12.2224 26.2701 11.237 25.4277 10.3438H27.9062C29.7422 10.3438 31.468 11.4453 32.9 13.2812ZM27.9062 42.6562H25.4277C26.2701 41.763 27.0092 40.7776 27.6309 39.7188H32.9C31.468 41.5547 29.7422 42.6562 27.9062 42.6562ZM34.6441 36.7812H29.0262C30.0543 34.1559 30.6602 31.1266 30.807 27.9688H36.682C36.5168 31.2734 35.7641 34.3211 34.6441 36.7812Z" fill="#FFC700"/>
</svg>
